<?xml version="1.0" encoding="utf-8"?>
<!-- Generator: Adobe Illustrator 26.0.1, SVG Export Plug-In . SVG Version: 6.00 Build 0)  -->
<svg version="1.1" id="Layer_1" xmlns="http://www.w3.org/2000/svg" xmlns:xlink="http://www.w3.org/1999/xlink" x="0px" y="0px"
	 viewBox="0 0 721.46 194.46" style="enable-background:new 0 0 721.46 194.46;" xml:space="preserve">
<style type="text/css">
	.st0{fill:#FFFFFF;}
	.st1{fill:#C39A40;}
</style>
<g>
	<path class="st0" d="M71.32,171.74h-39.2V54.14h-32.4v-33.2h104v33.2h-32.4V171.74z"/>
	<path class="st0" d="M152.92,92.54v30h-57.2v-30H152.92z"/>
	<path class="st1" d="M327.27,112.24v37.5h-22.75v39h-45.5v-39h-91.5v-31.25L240.27,0.24h64.25v112H327.27z M259.02,39.74h-0.5
		l-44,72.5h44.5V39.74z"/>
	<path class="st1" d="M407.27,164.49c0,16-13,29.25-29.25,29.25s-29.25-13.25-29.25-29.25c0-16.25,13-29.25,29.25-29.25
		S407.27,148.24,407.27,164.49z"/>
	<path class="st0" d="M450.17,20.94h38.6l30.6,80.6l32.4-80.6h39l22.8,150.8h-39.2l-11-86.8h-0.4l-36.2,86.8h-15.6l-34.6-86.8h-0.4
		l-12.6,86.8h-39L450.17,20.94z"/>
	<path class="st0" d="M669.36,54.14v25.2h44.2v33.2h-44.2v26h46.6v33.2h-85.8V20.94h85.8v33.2H669.36z"/>
</g>
</svg>
